<?xml version="1.0" standalone="no"?>
<!DOCTYPE svg PUBLIC "-//W3C//DTD SVG 20010904//EN"
 "http://www.w3.org/TR/2001/REC-SVG-20010904/DTD/svg10.dtd">
<svg version="1.0" xmlns="http://www.w3.org/2000/svg"
 width="32.000000pt" height="32.000000pt" viewBox="0 0 32.000000 32.000000"
 preserveAspectRatio="xMidYMid meet">

<g transform="translate(0.000000,32.000000) scale(0.100000,-0.100000)"
fill="#000000" stroke="none">
<path d="M4 257 c-2 -7 -3 -56 -2 -108 l3 -94 155 0 155 0 0 105 0 105 -153 3
c-121 2 -154 0 -158 -11z m218 -69 l-62 -63 -62 63 -63 62 125 0 125 0 -63
-62z m-165 -65 l-37 -38 0 75 0 75 37 -38 38 -37 -38 -37z m243 35 l0 -73 -37
37 -37 38 34 35 c19 19 35 35 37 35 2 0 3 -33 3 -72z m-165 -34 c23 -15 27
-15 51 1 26 17 27 17 63 -19 l36 -36 -125 0 -124 0 34 35 c19 19 35 35 37 35
2 0 15 -7 28 -16z"/>
</g>
</svg>
