<?xml version="1.0" standalone="no"?>
<!DOCTYPE svg PUBLIC "-//W3C//DTD SVG 20010904//EN"
 "http://www.w3.org/TR/2001/REC-SVG-20010904/DTD/svg10.dtd">
<svg version="1.0" xmlns="http://www.w3.org/2000/svg"
 width="752.000000pt" height="752.000000pt" viewBox="0 0 752.000000 752.000000"
 preserveAspectRatio="xMidYMid meet">

<g transform="translate(0.000000,752.000000) scale(0.100000,-0.100000)"
fill="#000000" stroke="none">
<path d="M3695 5876 c-35 -15 -162 -147 -259 -268 -143 -178 -286 -412 -371
-605 -26 -59 -48 -109 -50 -111 -1 -1 -47 27 -101 64 -175 117 -413 234 -475
234 -40 0 -89 -22 -116 -52 -53 -57 -154 -390 -189 -623 -33 -217 -21 -589 25
-786 l8 -36 -117 1 c-131 1 -152 -6 -197 -74 -20 -29 -23 -46 -23 -134 1 -437
198 -911 520 -1250 731 -770 1951 -810 2729 -90 218 202 392 460 495 736 76
204 120 445 114 625 -3 101 -3 102 -37 137 -49 50 -86 60 -202 52 l-97 -7 9
38 c46 199 58 568 25 788 -35 232 -136 566 -189 623 -27 30 -76 52 -117 52
-63 0 -350 -145 -508 -257 -35 -25 -65 -43 -67 -41 -2 1 -24 52 -50 111 -117
266 -307 551 -519 774 -105 111 -161 134 -241 99z m134 -453 c152 -190 300
-444 385 -661 l37 -94 -68 -71 c-38 -40 -81 -89 -97 -110 l-29 -37 -112 117
-112 118 -73 0 -73 0 -112 -118 -112 -117 -29 37 c-16 21 -59 70 -97 110 l-68
71 37 94 c56 142 156 333 243 464 83 124 198 274 211 274 4 0 35 -35 69 -77z
m-1241 -637 c202 -103 459 -319 619 -521 l70 -88 -71 -141 c-84 -167 -136
-304 -182 -481 -18 -71 -33 -131 -34 -131 0 -1 -60 29 -132 65 -73 37 -181 83
-240 102 l-107 34 -20 75 c-45 165 -56 263 -55 505 1 189 4 249 21 335 28 141
63 270 74 270 6 0 31 -11 57 -24z m2432 -58 c81 -299 91 -636 29 -936 -36
-176 -26 -162 -148 -201 -58 -19 -166 -65 -239 -102 -79 -39 -135 -62 -137
-55 -2 6 -17 65 -33 131 -41 165 -94 303 -178 471 l-71 141 70 88 c122 154
285 305 451 418 78 53 208 127 222 127 7 0 22 -37 34 -82z m-1182 -520 c201
-269 327 -558 382 -882 l20 -119 -98 -101 c-54 -56 -124 -136 -156 -178 -68
-91 -179 -275 -202 -335 -19 -48 -29 -54 -38 -20 -9 35 -127 237 -192 328 -32
45 -107 133 -167 195 l-107 112 20 118 c55 324 181 613 382 882 38 50 73 92
78 92 5 0 40 -42 78 -92z m-1526 -859 c559 -116 1017 -515 1202 -1048 35 -101
76 -275 76 -323 0 -24 -1 -25 -62 -16 -544 74 -1040 450 -1253 948 -47 110
-91 257 -110 364 -8 49 -15 90 -15 92 0 10 70 2 162 -17z m3051 -26 c-10 -85
-60 -268 -98 -364 -208 -527 -710 -920 -1273 -997 -61 -9 -62 -8 -62 16 0 48
41 222 76 323 163 468 529 830 1004 993 114 39 263 74 322 75 l38 1 -7 -47z"/>
</g>
</svg>
