<?xml version="1.0" standalone="no"?>
<!DOCTYPE svg PUBLIC "-//W3C//DTD SVG 20010904//EN"
 "http://www.w3.org/TR/2001/REC-SVG-20010904/DTD/svg10.dtd">
<svg version="1.0" xmlns="http://www.w3.org/2000/svg"
 width="64.000000pt" height="64.000000pt" viewBox="0 0 64.000000 64.000000"
 preserveAspectRatio="xMidYMid meet">

<g transform="translate(0.000000,64.000000) scale(0.100000,-0.100000)"
fill="#000000" stroke="none">
<path d="M286 576 c-14 -25 -26 -57 -26 -71 0 -26 -2 -26 -40 -20 -35 6 -40 4
-40 -13 0 -11 7 -38 15 -61 12 -36 12 -41 0 -41 -19 0 -19 -14 -1 -73 12 -40
12 -45 -2 -40 -13 5 -14 -1 -8 -38 4 -24 15 -57 25 -74 15 -26 23 -30 59 -30
l42 0 0 -47 c0 -27 5 -48 10 -48 6 0 10 21 10 48 l0 47 42 0 c36 0 44 4 59 30
10 17 21 50 25 74 6 37 5 43 -8 38 -14 -5 -14 0 -2 40 18 59 18 73 -1 73 -12
0 -12 5 0 41 8 23 15 50 15 61 0 17 -5 19 -40 13 -38 -6 -40 -6 -40 20 0 27
-46 115 -60 115 -4 0 -20 -20 -34 -44z m64 -30 c26 -55 16 -86 -30 -86 -46 0
-56 31 -30 86 12 24 25 44 30 44 5 0 18 -20 30 -44z m-70 -99 c46 -22 34 -87
-16 -87 -27 0 -49 29 -59 79 -7 33 -7 34 21 27 16 -4 40 -13 54 -19z m155 -9
c-10 -48 -32 -78 -58 -78 -29 0 -47 18 -47 46 0 25 13 37 55 52 51 18 57 15
50 -20z m-96 -82 c9 -10 8 -15 -4 -20 -8 -3 -22 -3 -30 0 -12 5 -13 10 -4 20
6 8 15 14 19 14 4 0 13 -6 19 -14z m-51 -32 c45 -29 13 -95 -39 -79 -20 7 -32
29 -45 82 -6 24 -5 25 27 18 19 -4 44 -13 57 -21z m148 1 c-19 -74 -45 -97
-86 -75 -34 18 -23 61 20 82 52 26 74 24 66 -7z m-100 -86 c10 -17 -13 -36
-27 -22 -12 12 -4 33 11 33 5 0 12 -5 16 -11z m-40 -41 c36 -35 -9 -93 -54
-69 -16 9 -42 69 -42 99 0 14 76 -9 96 -30z m134 -13 c-14 -49 -39 -70 -70
-60 -28 9 -37 52 -16 73 15 16 86 42 95 36 2 -2 -2 -24 -9 -49z"/>
</g>
</svg>
